<svg width="169" height="75" viewBox="0 0 169 75" fill="none" xmlns="http://www.w3.org/2000/svg">
<g clip-path="url(#clip0_545_58)">
<path fill-rule="evenodd" clip-rule="evenodd" d="M167.356 53.3426L167.253 58.5121C157.185 59.8208 147.114 60.0645 137.05 59.1394C134.432 58.9363 133.113 57.2259 132.677 54.5024V47.5502C133.063 44.4973 134.39 42.2205 137.755 41.97C147.885 41.1758 157.573 41.7173 167.153 42.6018L167.048 47.6495L143.558 53.3403L140.3 49.9737L155.764 46.3882C149.967 46.2167 143.968 46.4559 138.17 47.1328V54.1865C147.799 55.0462 157.726 55.0011 167.356 53.338V53.3426ZM131.319 35.5076C121.538 34.1966 110.972 33.901 101.187 34.9705C97.9362 35.6159 97.0739 37.7144 97.0433 41.2254L96.9625 59.2026H102.396L102.484 40.0656C112.762 38.7772 122.106 39.409 131.238 40.5191L131.319 35.5076ZM90.1358 41.5007L95.4867 41.5887L95.4059 54.7235C95.2007 58.0067 93.3887 59.4937 89.9699 59.2026L90.1358 41.5007ZM90.3083 34.4357V39.2645C93.7053 39.4676 95.4867 37.8904 95.6614 34.5215L90.3083 34.4357ZM54.3037 31.3105L59.7485 31.3963L59.6546 53.5614C69.398 54.6851 78.9843 54.2136 88.4984 52.9364L88.4089 58.0405C78.5062 59.541 67.8305 59.717 58.7137 58.749C55.5328 58.4986 54.2644 56.2692 54.3037 52.6724V31.3105ZM38.9736 41.5007L44.3376 41.5887L44.2438 54.7235C44.0451 58.0067 42.2287 59.4937 38.8099 59.2026L38.9758 41.5007H38.9736ZM39.1461 34.4357V39.2645C42.5431 39.4676 44.3267 37.8904 44.5036 34.5215L39.1461 34.4357ZM0 31.5678H5.60415L5.56704 43.0464C14.6751 41.8234 23.7811 41.7963 32.8892 42.5793C35.7098 42.665 37.19 44.3754 37.3254 47.7014L37.2446 59.2251L31.9744 59.3109L32.0552 47.6089C23.22 46.8711 14.3848 46.9433 5.54739 48.0083L5.52338 55.502C5.04745 58.6452 3.2398 59.954 0.0851429 59.3966L0 31.57L0 31.5678ZM103.261 43.5541L131.153 43.6443V48.3806H107.754C104.628 48.5589 102.92 47.1847 103.259 43.5563L103.261 43.5541ZM46.9902 47.2479H52.3171V49.3125H46.9902V47.2479Z" fill="white"/>
<path d="M7.45996 74.6886V66.6601H8.72182V73.5198H11.5446V74.6886H7.45996Z" fill="white"/>
<path d="M15.8691 74.6886V66.6601H17.131V74.6886H15.8691Z" fill="white"/>
<path d="M24.6942 75L21.2295 66.6601H22.5394L24.2794 70.9384C24.382 71.1866 24.4671 71.4167 24.5348 71.6266C24.6025 71.8364 24.6549 72.0373 24.6942 72.2268C24.74 72.026 24.7989 71.8184 24.8688 71.6018C24.9387 71.3852 25.0216 71.164 25.1177 70.9384L26.8533 66.6601H28.1588L24.6942 75Z" fill="white"/>
<path d="M32.2217 74.6886V66.6601H36.5552V67.7681H33.4835V69.7808H36.5552V70.9271H33.4835V73.5198H36.5552V74.6886H32.2217Z" fill="white"/>
<path d="M50.3503 67.7681V74.6886H49.0885V67.7681H47.0254V66.6601H52.4047V67.7681H50.3525H50.3503Z" fill="white"/>
<path d="M56.6484 74.6886V66.6601H57.9103V69.6206H61.7308V66.6601H62.9927V74.6886H61.7308V70.7895H57.9103V74.6886H56.6484Z" fill="white"/>
<path d="M68.0537 74.6886V66.6601H72.3873V67.7681H69.3156V69.7808H72.3873V70.9271H69.3156V73.5198H72.3873V74.6886H68.0537Z" fill="white"/>
<path d="M83.6738 74.6886V66.6601H84.9357V69.6206H88.7562V66.6601H90.0181V74.6886H88.7562V70.7895H84.9357V74.6886H83.6738Z" fill="white"/>
<path d="M95.1006 74.6886V66.6601H96.3625V74.6886H95.1006Z" fill="white"/>
<path d="M105.761 70.5751H108.837C108.837 70.6292 108.837 70.706 108.841 70.8053C108.852 71.0647 108.857 71.2407 108.857 71.331C108.857 72.4615 108.545 73.337 107.918 73.9643C107.291 74.5916 106.409 74.903 105.27 74.903C104.632 74.903 104.065 74.8059 103.567 74.6119C103.069 74.4178 102.63 74.1245 102.257 73.7341C101.888 73.346 101.606 72.8925 101.41 72.369C101.213 71.8455 101.115 71.2859 101.115 70.6902C101.115 70.0945 101.216 69.5236 101.414 69.0114C101.615 68.4992 101.91 68.0479 102.303 67.6575C102.681 67.2739 103.126 66.9806 103.635 66.7797C104.143 66.5789 104.689 66.4774 105.268 66.4774C105.879 66.4774 106.427 66.5925 106.909 66.8226C107.392 67.0528 107.822 67.4048 108.202 67.8809L107.278 68.5984C107.016 68.2848 106.722 68.0501 106.392 67.8967C106.062 67.7432 105.695 67.6665 105.289 67.6665C104.447 67.6665 103.761 67.9463 103.229 68.5037C102.696 69.061 102.429 69.7853 102.429 70.6789C102.429 71.5724 102.696 72.3216 103.229 72.8857C103.761 73.4498 104.451 73.7319 105.3 73.7319C106.021 73.7319 106.591 73.5581 107.003 73.2106C107.418 72.8631 107.623 72.3893 107.623 71.7913V71.6762H105.757V70.5751H105.761Z" fill="white"/>
<path d="M113.463 74.6886V66.6601H114.725V69.6206H118.545V66.6601H119.807V74.6886H118.545V70.7895H114.725V74.6886H113.463Z" fill="white"/>
<path d="M131.428 74.6886V66.6601H132.69V73.5198H135.512V74.6886H131.428Z" fill="white"/>
<path d="M139.838 74.6886V66.6601H141.1V74.6886H139.838Z" fill="white"/>
<path d="M146.192 74.6886V66.6601H150.526V67.7681H147.454V69.7695H150.526V70.9158H147.454V74.6886H146.192Z" fill="white"/>
<path d="M155.174 74.6886V66.6601H159.507V67.7681H156.436V69.7808H159.507V70.9271H156.436V73.5198H159.507V74.6886H155.174Z" fill="white"/>
<path fill-rule="evenodd" clip-rule="evenodd" d="M133.847 24.4462H137.347L137.436 36.7168L127.095 25.6308C127.095 25.6308 125.885 24.2995 126.298 23.3338C126.708 22.3657 131.443 17.4061 131.443 17.4061L146.542 0.816617C146.542 0.816617 147.239 0.0629619 148.003 0.00203764C148.767 -0.0588866 149.54 1.09642 149.952 1.55222C150.365 2.00802 168.638 22.1785 168.638 22.1785C168.638 22.1785 169.684 23.1465 168.225 24.8546C166.767 26.5627 158.039 36.7845 158.039 36.7845L158.111 24.4056L162.342 24.2612L148.092 8.94662L133.847 24.4417V24.4462Z" fill="#0095DA"/>
</g>
<defs>
<clipPath id="clip0_545_58">
<rect width="169" height="75" fill="white"/>
</clipPath>
</defs>
</svg>
