<svg width="15" height="18" viewBox="0 0 15 18" fill="none" xmlns="http://www.w3.org/2000/svg">
<path d="M7.20019 0C5.29124 0.00214395 3.46109 0.761421 2.11125 2.11125C0.761421 3.46109 0.00214395 5.29124 0 7.20019C0 10.1298 2.12676 12.5625 4.37951 15.1375C5.09233 15.9529 5.83035 16.7962 6.48737 17.6495C6.57145 17.7585 6.67943 17.8469 6.80301 17.9076C6.92659 17.9684 7.06247 18 7.20019 18C7.3379 18 7.47378 17.9684 7.59736 17.9076C7.72094 17.8469 7.82893 17.7585 7.91301 17.6495C8.57002 16.7962 9.30804 15.9529 10.0209 15.1375C12.2736 12.5625 14.4004 10.1298 14.4004 7.20019C14.3982 5.29124 13.639 3.46109 12.2891 2.11125C10.9393 0.761421 9.10914 0.00214395 7.20019 0ZM7.20019 9.90026C6.66616 9.90026 6.14413 9.7419 5.70011 9.44521C5.25608 9.14853 4.91001 8.72683 4.70565 8.23346C4.50129 7.74009 4.44781 7.19719 4.552 6.67343C4.65618 6.14967 4.91334 5.66856 5.29095 5.29095C5.66856 4.91334 6.14967 4.65618 6.67343 4.552C7.19719 4.44782 7.74009 4.50129 8.23346 4.70565C8.72683 4.91001 9.14853 5.25608 9.44521 5.70011C9.7419 6.14413 9.90026 6.66616 9.90026 7.20019C9.90026 7.91629 9.61579 8.60306 9.10943 9.10943C8.60306 9.61579 7.91629 9.90026 7.20019 9.90026Z" fill="#D0011A"/>
</svg>
