<svg width="35" height="35" viewBox="0 0 35 35" fill="none" xmlns="http://www.w3.org/2000/svg">
<path d="M17.5 -1.5299e-06C27.1653 -6.84934e-07 35 7.83473 35 17.5C35 27.1653 27.1653 35 17.5 35C7.83473 35 6.84934e-07 27.1653 1.5299e-06 17.5C2.37486e-06 7.83473 7.83473 -2.37486e-06 17.5 -1.5299e-06ZM17.5 33.0962C26.0669 33.0962 33.0962 26.0669 33.0962 17.5C33.0962 8.93306 26.0669 1.90377 17.5 1.90377C8.93306 1.90377 1.90377 8.93305 1.90377 17.5C1.90377 26.0669 8.93306 33.0962 17.5 33.0962Z" fill="#134563"/>
<path d="M17.1337 7.46873L27.165 17.5001L17.1337 27.5315L15.8157 26.1403L24.3826 17.5001L15.8157 8.85995L17.1337 7.46873Z" fill="#134563"/>
<path d="M25.7744 18.5251L8.20119 18.5251L8.20119 16.4749L25.7744 16.4749L25.7744 18.5251Z" fill="#134563"/>
</svg>
