<svg width="86" height="86" viewBox="0 0 86 86" fill="none" xmlns="http://www.w3.org/2000/svg">
<circle cx="43" cy="43" r="43" fill="#169AD8"/>
<path d="M58.2516 40.0281H57.0266V35.3115C57.0266 34.8424 56.833 34.3925 56.4884 34.0608C56.1438 33.7291 55.6764 33.5428 55.1891 33.5428H52.7391C52.5047 33.5434 52.2726 33.5875 52.0555 33.6725C51.9508 33.2981 51.7212 32.9673 51.402 32.7308C51.0829 32.4943 50.6918 32.3653 50.2891 32.3636H47.8391C47.3517 32.3636 46.8844 32.55 46.5398 32.8817C46.1952 33.2134 46.0016 33.6633 46.0016 34.1324V40.0281H36.2016V34.1324C36.2016 33.6633 36.008 33.2134 35.6634 32.8817C35.3188 32.55 34.8514 32.3636 34.3641 32.3636H31.9141C31.5113 32.3653 31.1203 32.4943 30.8011 32.7308C30.4819 32.9673 30.2523 33.2981 30.1476 33.6725C29.9305 33.5875 29.6984 33.5434 29.4641 33.5428H27.0141C26.5267 33.5428 26.0594 33.7291 25.7148 34.0608C25.3702 34.3925 25.1766 34.8424 25.1766 35.3115V40.0281H23.9516C23.6267 40.0281 23.3151 40.1523 23.0854 40.3734C22.8556 40.5946 22.7266 40.8945 22.7266 41.2072V43.5655C22.7266 43.8782 22.8556 44.1782 23.0854 44.3993C23.3151 44.6204 23.6267 44.7447 23.9516 44.7447H25.1766V49.4612C25.1766 49.9303 25.3702 50.3802 25.7148 50.7119C26.0594 51.0436 26.5267 51.23 27.0141 51.23H29.4641C29.6984 51.2293 29.9305 51.1853 30.1476 51.1003C30.2523 51.4746 30.4819 51.8055 30.8011 52.042C31.1203 52.2785 31.5113 52.4074 31.9141 52.4091H34.3641C34.8514 52.4091 35.3188 52.2228 35.6634 51.8911C36.008 51.5594 36.2016 51.1095 36.2016 50.6404V44.7447H46.0016V50.6404C46.0016 51.1095 46.1952 51.5594 46.5398 51.8911C46.8844 52.2228 47.3517 52.4091 47.8391 52.4091H50.2891C50.6918 52.4074 51.0829 52.2785 51.402 52.042C51.7212 51.8055 51.9508 51.4746 52.0555 51.1003C52.2726 51.1853 52.5047 51.2293 52.7391 51.23H55.1891C55.6764 51.23 56.1438 51.0436 56.4884 50.7119C56.833 50.3802 57.0266 49.9303 57.0266 49.4612V44.7447H58.2516C58.5765 44.7447 58.888 44.6204 59.1178 44.3993C59.3475 44.1782 59.4766 43.8782 59.4766 43.5655V41.2072C59.4766 40.8945 59.3475 40.5946 59.1178 40.3734C58.888 40.1523 58.5765 40.0281 58.2516 40.0281ZM25.1766 43.5655H23.9516V41.2072H25.1766V43.5655ZM30.0766 49.4612C30.0766 49.6176 30.012 49.7676 29.8972 49.8781C29.7823 49.9887 29.6265 50.0508 29.4641 50.0508H27.0141C26.8516 50.0508 26.6958 49.9887 26.581 49.8781C26.4661 49.7676 26.4016 49.6176 26.4016 49.4612V35.3115C26.4016 35.1551 26.4661 35.0052 26.581 34.8946C26.6958 34.7841 26.8516 34.7219 27.0141 34.7219H29.4641C29.6265 34.7219 29.7823 34.7841 29.8972 34.8946C30.012 35.0052 30.0766 35.1551 30.0766 35.3115V49.4612ZM34.9766 50.6404C34.9766 50.7967 34.912 50.9467 34.7972 51.0573C34.6823 51.1678 34.5265 51.23 34.3641 51.23H31.9141C31.7516 51.23 31.5958 51.1678 31.481 51.0573C31.3661 50.9467 31.3016 50.7967 31.3016 50.6404V34.1324C31.3016 33.976 31.3661 33.826 31.481 33.7155C31.5958 33.6049 31.7516 33.5428 31.9141 33.5428H34.3641C34.5265 33.5428 34.6823 33.6049 34.7972 33.7155C34.912 33.826 34.9766 33.976 34.9766 34.1324V50.6404ZM46.0016 43.5655H36.2016V41.2072H46.0016V43.5655ZM50.9016 35.3115V50.6404C50.9016 50.7967 50.837 50.9467 50.7222 51.0573C50.6073 51.1678 50.4515 51.23 50.2891 51.23H47.8391C47.6766 51.23 47.5208 51.1678 47.406 51.0573C47.2911 50.9467 47.2266 50.7967 47.2266 50.6404V34.1324C47.2266 33.976 47.2911 33.826 47.406 33.7155C47.5208 33.6049 47.6766 33.5428 47.8391 33.5428H50.2891C50.4515 33.5428 50.6073 33.6049 50.7222 33.7155C50.837 33.826 50.9016 33.976 50.9016 34.1324V35.3115ZM55.8016 49.4612C55.8016 49.6176 55.737 49.7676 55.6222 49.8781C55.5073 49.9887 55.3515 50.0508 55.1891 50.0508H52.7391C52.5766 50.0508 52.4208 49.9887 52.306 49.8781C52.1911 49.7676 52.1266 49.6176 52.1266 49.4612V35.3115C52.1266 35.1551 52.1911 35.0052 52.306 34.8946C52.4208 34.7841 52.5766 34.7219 52.7391 34.7219H55.1891C55.3515 34.7219 55.5073 34.7841 55.6222 34.8946C55.737 35.0052 55.8016 35.1551 55.8016 35.3115V49.4612ZM58.2516 43.5655H57.0266V41.2072H58.2516V43.5655Z" fill="#F7F9FB"/>
<path opacity="0.6" fill-rule="evenodd" clip-rule="evenodd" d="M31.7879 23.2917L33.381 24.1893C33.4317 24.2179 33.487 24.2314 33.5416 24.2314C33.6527 24.2314 33.7608 24.1751 33.8204 24.0744C33.9092 23.9243 33.8565 23.7323 33.7027 23.6457L32.4312 22.9293L33.7027 22.2129C33.8565 22.1262 33.9092 21.9342 33.8204 21.7841C33.7316 21.634 33.5348 21.5825 33.381 21.6692L32.1098 22.3855V20.953C32.1098 20.7796 31.9658 20.6391 31.7881 20.6391C31.6105 20.6391 31.4665 20.7796 31.4665 20.953V22.7479L29.2006 24.0245V21.5614L30.8499 20.6321C31.0037 20.5454 31.0564 20.3535 30.9677 20.2034C30.8788 20.0533 30.6821 20.0017 30.5282 20.0885L29.2006 20.8365V19.3139C29.2006 19.1406 29.0566 19 28.879 19C28.7014 19 28.5573 19.1406 28.5573 19.3139V20.8365L27.2298 20.0885C27.0759 20.0018 26.8792 20.0533 26.7904 20.2034C26.7015 20.3535 26.7543 20.5454 26.9081 20.6321L28.5573 21.5614V24.0245L26.4264 22.8239V21.0325C26.4264 20.8591 26.2823 20.7186 26.1047 20.7186C25.9271 20.7186 25.7831 20.8591 25.7831 21.0325V22.4615L24.377 21.6692C24.2232 21.5826 24.0264 21.634 23.9376 21.7841C23.8488 21.9342 23.9015 22.1262 24.0553 22.2129L25.4573 23.0028L24.0553 23.7927C23.9015 23.8793 23.8488 24.0713 23.9376 24.2215C23.9972 24.3222 24.1053 24.3785 24.2164 24.3785C24.271 24.3785 24.3263 24.3649 24.377 24.3364L26.1006 23.3653L28.2357 24.5682L26.0519 25.7986L24.3233 24.8246C24.1695 24.738 23.9728 24.7894 23.884 24.9396C23.7951 25.0897 23.8479 25.2817 24.0017 25.3683L25.4086 26.161L24.0553 26.9235C23.9015 27.0102 23.8488 27.2022 23.9376 27.3523C23.9972 27.453 24.1053 27.5093 24.2164 27.5093C24.271 27.5093 24.3263 27.4957 24.377 27.4671L25.7295 26.7051V28.1286C25.7295 28.302 25.8735 28.4425 26.0511 28.4425C26.2287 28.4425 26.3728 28.302 26.3728 28.1286V26.3427L28.5573 25.1118V27.5695L26.8983 28.5043C26.7445 28.591 26.6918 28.7829 26.7806 28.9331C26.8694 29.0832 27.0662 29.1346 27.22 29.0479L28.5573 28.2944V29.8225C28.5573 29.9958 28.7014 30.1364 28.879 30.1364C29.0566 30.1364 29.2006 29.9958 29.2006 29.8225V28.2944L30.5381 29.0479C30.5887 29.0765 30.644 29.09 30.6986 29.09C30.8097 29.09 30.9179 29.0338 30.9774 28.9331C31.0662 28.7829 31.0135 28.591 30.8597 28.5043L29.2006 27.5695V25.1118L31.4665 26.3884V28.1834C31.4665 28.3568 31.6105 28.4973 31.7881 28.4973C31.9658 28.4973 32.1098 28.3568 32.1098 28.1834V26.7509L33.381 27.4671C33.4317 27.4957 33.487 27.5093 33.5416 27.5093C33.6527 27.5093 33.7608 27.453 33.8204 27.3523C33.9092 27.2022 33.8565 27.0102 33.7027 26.9235L32.4312 26.2071L33.7027 25.4908C33.8565 25.4041 33.9092 25.2121 33.8204 25.062C33.7316 24.9119 33.5348 24.8604 33.381 24.9471L31.7879 25.8447L29.5223 24.5682L31.7879 23.2917Z" fill="#F7F9FB"/>
<path fill-rule="evenodd" clip-rule="evenodd" d="M64.5053 58.4175L66.6295 59.6741C66.697 59.7141 66.7708 59.733 66.8435 59.733C66.9917 59.733 67.1359 59.6542 67.2153 59.5133C67.3337 59.3031 67.2635 59.0343 67.0583 58.913L65.363 57.9101L67.0583 56.9071C67.2635 56.7858 67.3337 56.517 67.2153 56.3068C67.0969 56.0966 66.8345 56.0246 66.6295 56.146L64.9344 57.1488V55.1432C64.9344 54.9006 64.7424 54.7038 64.5056 54.7038C64.2688 54.7038 64.0767 54.9006 64.0767 55.1432V57.6561L61.0556 59.4434V55.995L63.2546 54.694C63.4597 54.5727 63.53 54.304 63.4116 54.0938C63.2932 53.8836 63.0309 53.8115 62.8257 53.9329L61.0556 54.9801V52.8485C61.0556 52.6058 60.8636 52.4091 60.6267 52.4091C60.3899 52.4091 60.1979 52.6058 60.1979 52.8485V54.9801L58.4278 53.9329C58.2226 53.8116 57.9603 53.8836 57.8419 54.0938C57.7235 54.304 57.7938 54.5727 57.9989 54.694L60.1979 55.995V59.4434L57.3566 57.7625V55.2545C57.3566 55.0118 57.1645 54.8151 56.9277 54.8151C56.6909 54.8151 56.4989 55.0118 56.4989 55.2545V57.2551L54.6241 56.146C54.4191 56.0247 54.1567 56.0966 54.0382 56.3068C53.9198 56.517 53.9901 56.7858 54.1952 56.9071L56.0645 58.013L54.1952 59.1189C53.9901 59.2401 53.9198 59.5089 54.0382 59.7191C54.1177 59.8601 54.2618 59.9389 54.41 59.9389C54.4828 59.9389 54.5565 59.9199 54.6241 59.88L56.9222 58.5204L59.769 60.2045L56.8573 61.927L54.5525 60.5636C54.3475 60.4423 54.0852 60.5143 53.9667 60.7245C53.8483 60.9346 53.9186 61.2034 54.1237 61.3247L55.9996 62.4345L54.1952 63.502C53.9901 63.6233 53.9198 63.8921 54.0382 64.1022C54.1177 64.2432 54.2618 64.322 54.41 64.322C54.4828 64.322 54.5565 64.303 54.6241 64.2631L56.4274 63.1963V65.1891C56.4274 65.4318 56.6194 65.6285 56.8562 65.6285C57.093 65.6285 57.2851 65.4318 57.2851 65.1891V62.6889L60.1979 60.9656V64.4064L57.9858 65.7151C57.7807 65.8364 57.7105 66.1051 57.8289 66.3153C57.9473 66.5255 58.2096 66.5975 58.4147 66.4762L60.1979 65.4212V67.5605C60.1979 67.8032 60.3899 68 60.6267 68C60.8636 68 61.0556 67.8032 61.0556 67.5605V65.4212L62.8388 66.4762C62.9064 66.5162 62.9801 66.5351 63.0528 66.5351C63.2011 66.5351 63.3452 66.4563 63.4246 66.3153C63.5431 66.1051 63.4727 65.8364 63.2677 65.7151L61.0556 64.4064V60.9656L64.0767 62.7529V65.2658C64.0767 65.5085 64.2688 65.7053 64.5056 65.7053C64.7424 65.7053 64.9344 65.5085 64.9344 65.2658V63.2603L66.6295 64.2631C66.697 64.303 66.7708 64.322 66.8435 64.322C66.9917 64.322 67.1359 64.2432 67.2153 64.1022C67.3337 63.8921 67.2635 63.6233 67.0583 63.502L65.363 62.499L67.0583 61.4961C67.2635 61.3748 67.3337 61.106 67.2153 60.8958C67.0969 60.6857 66.8345 60.6137 66.6295 60.735L64.5053 61.9916L61.4845 60.2045L64.5053 58.4175Z" fill="#F7F9FB"/>
</svg>
