<svg width="86" height="86" viewBox="0 0 86 86" fill="none" xmlns="http://www.w3.org/2000/svg">
<circle cx="43" cy="43" r="43" fill="#169AD8"/>
<path d="M54.751 18.4251C54.7506 18.0472 54.6003 17.685 54.3332 17.4178C54.066 17.1507 53.7038 17.0004 53.326 17H32.4251C32.0472 17.0004 31.685 17.1507 31.4178 17.4178C31.1507 17.685 31.0004 18.0472 31 18.4251V24.1253C31 24.1351 31.005 24.1433 31.0056 24.1529C31.0061 24.1618 31.002 24.1702 31.003 24.1791L31.3493 27.2097C31.4039 27.5428 31.5753 27.8456 31.8329 28.0639C32.0904 28.2821 32.4173 28.4014 32.7549 28.4005H52.9961C53.3376 28.4002 53.6676 28.2774 53.9262 28.0544C54.1847 27.8314 54.3547 27.523 54.4052 27.1853L54.748 24.1791C54.749 24.1702 54.7449 24.1618 54.7455 24.1529C54.746 24.1433 54.751 24.1351 54.751 24.1253V18.4251ZM31.95 18.4251C31.9502 18.2991 32.0003 18.1784 32.0894 18.0894C32.1784 18.0003 32.2991 17.9502 32.4251 17.95H53.326C53.4519 17.9502 53.5726 18.0003 53.6617 18.0894C53.7507 18.1784 53.8008 18.2991 53.801 18.4251V23.6503H31.95V18.4251ZM52.2715 24.6003L52.063 25.6434C52.0412 25.751 51.9829 25.8478 51.898 25.9174C51.8131 25.987 51.7068 26.0251 51.597 26.0254H34.154C34.0442 26.0251 33.9379 25.987 33.8529 25.9174C33.768 25.8478 33.7098 25.751 33.688 25.6434L33.4795 24.6003H52.2715ZM53.4647 27.0534C53.4465 27.1644 53.3894 27.2654 53.3035 27.3382C53.2176 27.4109 53.1087 27.4507 52.9961 27.4504H32.7549C32.6462 27.4518 32.5404 27.4154 32.4556 27.3474C32.3707 27.2794 32.3122 27.1841 32.2898 27.0777L32.0073 24.6003H32.5107L32.7565 25.8299C32.8218 26.1526 32.9965 26.4429 33.2511 26.6516C33.5058 26.8604 33.8247 26.9747 34.154 26.9754H51.597C51.9263 26.9747 52.2452 26.8604 52.4999 26.6516C52.7545 26.4429 52.9292 26.1526 52.9945 25.8299L53.2403 24.6003H53.7439L53.4647 27.0534Z" fill="#F7F9FB"/>
<path d="M37.1752 22.7003H48.5757C48.7017 22.7003 48.8225 22.6502 48.9116 22.5612C49.0007 22.4721 49.0507 22.3512 49.0507 22.2253C49.0507 22.0993 49.0007 21.9785 48.9116 21.8894C48.8225 21.8003 48.7017 21.7502 48.5757 21.7502H37.1752C37.0492 21.7502 36.9284 21.8003 36.8393 21.8894C36.7502 21.9785 36.7002 22.0993 36.7002 22.2253C36.7002 22.3512 36.7502 22.4721 36.8393 22.5612C36.9284 22.6502 37.0492 22.7003 37.1752 22.7003Z" fill="#F7F9FB"/>
<path d="M51.4262 19.8501H52.3762C52.5022 19.8501 52.623 19.8 52.7121 19.7109C52.8012 19.6219 52.8513 19.501 52.8513 19.375C52.8513 19.2491 52.8012 19.1282 52.7121 19.0392C52.623 18.9501 52.5022 18.9 52.3762 18.9H51.4262C51.3002 18.9 51.1794 18.9501 51.0903 19.0392C51.0012 19.1282 50.9512 19.2491 50.9512 19.375C50.9512 19.501 51.0012 19.6219 51.0903 19.7109C51.1794 19.8 51.3002 19.8501 51.4262 19.8501Z" fill="#F7F9FB"/>
<path d="M49.2885 19.8501H49.7635C49.8895 19.8501 50.0103 19.8 50.0994 19.7109C50.1885 19.6219 50.2385 19.501 50.2385 19.375C50.2385 19.2491 50.1885 19.1282 50.0994 19.0392C50.0103 18.9501 49.8895 18.9 49.7635 18.9H49.2885C49.1625 18.9 49.0417 18.9501 48.9526 19.0392C48.8635 19.1282 48.8135 19.2491 48.8135 19.375C48.8135 19.501 48.8635 19.6219 48.9526 19.7109C49.0417 19.8 49.1625 19.8501 49.2885 19.8501Z" fill="#F7F9FB"/>
<path d="M37.3875 29.4007C37.2751 29.3449 37.1452 29.3359 37.0262 29.3756C36.9071 29.4152 36.8086 29.5004 36.7521 29.6124C36.6956 29.7245 36.6858 29.8543 36.7247 29.9736C36.7636 30.0929 36.8481 30.192 36.9598 30.2492C37.1481 30.3468 37.3095 30.4892 37.4299 30.6638C37.5503 30.8384 37.6259 31.04 37.6501 31.2507C37.6501 31.7037 37.3755 31.9317 36.89 32.2958C36.382 32.6767 35.75 33.1508 35.75 34.1008C35.7737 34.488 35.898 34.8624 36.1107 35.1868C36.3233 35.5113 36.617 35.7746 36.9626 35.9508C37.075 36.0064 37.2048 36.0153 37.3237 35.9756C37.4427 35.9359 37.5411 35.8508 37.5975 35.7389C37.654 35.6269 37.6639 35.4971 37.6251 35.3779C37.5862 35.2587 37.5019 35.1596 37.3903 35.1024C37.202 35.0047 37.0406 34.8624 36.9202 34.6877C36.7999 34.5131 36.7242 34.3115 36.7 34.1008C36.7 33.6478 36.9747 33.4198 37.4601 33.0557C37.9681 32.6748 38.6001 32.2007 38.6001 31.2507C38.5764 30.8635 38.4521 30.4892 38.2394 30.1647C38.0268 29.8403 37.7331 29.5769 37.3875 29.4007Z" fill="#F7F9FB"/>
<path d="M41.1883 29.4007C41.0759 29.3449 40.946 29.3359 40.8269 29.3756C40.7079 29.4152 40.6094 29.5004 40.5529 29.6124C40.4964 29.7245 40.4865 29.8543 40.5255 29.9736C40.5644 30.0929 40.6489 30.192 40.7606 30.2492C40.9489 30.3468 41.1103 30.4892 41.2307 30.6638C41.3511 30.8384 41.4267 31.04 41.4509 31.2507C41.4509 31.7037 41.1762 31.9317 40.6908 32.2958C40.1828 32.6767 39.5508 33.1508 39.5508 34.1008C39.5745 34.488 39.6988 34.8624 39.9115 35.1868C40.1241 35.5113 40.4178 35.7746 40.7634 35.9508C40.8758 36.0064 41.0056 36.0153 41.1245 35.9756C41.2435 35.9359 41.3419 35.8508 41.3983 35.7389C41.4548 35.6269 41.4647 35.4971 41.4258 35.3779C41.387 35.2587 41.3026 35.1596 41.1911 35.1024C41.0028 35.0047 40.8414 34.8624 40.721 34.6877C40.6006 34.5131 40.525 34.3115 40.5008 34.1008C40.5008 33.6478 40.7754 33.4198 41.2609 33.0557C41.7689 32.6748 42.4009 32.2007 42.4009 31.2507C42.3772 30.8635 42.2529 30.4892 42.0402 30.1647C41.8276 29.8403 41.5339 29.5769 41.1883 29.4007Z" fill="#F7F9FB"/>
<path d="M44.9881 29.4007C44.8757 29.3449 44.7458 29.3359 44.6267 29.3756C44.5077 29.4152 44.4092 29.5004 44.3527 29.6124C44.2962 29.7245 44.2863 29.8543 44.3253 29.9736C44.3642 30.0929 44.4487 30.192 44.5604 30.2492C44.7487 30.3468 44.9101 30.4892 45.0305 30.6638C45.1509 30.8384 45.2265 31.04 45.2507 31.2507C45.2507 31.7037 44.976 31.9317 44.4906 32.2958C43.9826 32.6767 43.3506 33.1508 43.3506 34.1008C43.3743 34.488 43.4986 34.8624 43.7113 35.1868C43.9239 35.5113 44.2176 35.7746 44.5632 35.9508C44.6756 36.0064 44.8054 36.0153 44.9243 35.9756C45.0433 35.9359 45.1417 35.8508 45.1981 35.7389C45.2546 35.6269 45.2645 35.4971 45.2256 35.3779C45.1868 35.2587 45.1024 35.1596 44.9909 35.1024C44.8026 35.0047 44.6412 34.8624 44.5208 34.6877C44.4004 34.5131 44.3248 34.3115 44.3006 34.1008C44.3006 33.6478 44.5753 33.4198 45.0607 33.0557C45.5687 32.6748 46.2007 32.2007 46.2007 31.2507C46.177 30.8635 46.0527 30.4892 45.84 30.1647C45.6274 29.8403 45.3337 29.5769 44.9881 29.4007Z" fill="#F7F9FB"/>
<path d="M48.7879 29.4007C48.6755 29.3449 48.5456 29.3359 48.4266 29.3756C48.3075 29.4152 48.209 29.5004 48.1525 29.6124C48.096 29.7245 48.0861 29.8543 48.1251 29.9736C48.164 30.0929 48.2485 30.192 48.3602 30.2492C48.5485 30.3468 48.7099 30.4892 48.8303 30.6638C48.9507 30.8384 49.0263 31.04 49.0505 31.2507C49.0505 31.7037 48.7759 31.9317 48.2904 32.2958C47.7824 32.6767 47.1504 33.1508 47.1504 34.1008C47.1741 34.488 47.2984 34.8624 47.5111 35.1868C47.7237 35.5113 48.0174 35.7746 48.363 35.9508C48.4754 36.0064 48.6052 36.0153 48.7241 35.9756C48.8431 35.9359 48.9415 35.8508 48.9979 35.7389C49.0544 35.6269 49.0643 35.4971 49.0255 35.3779C48.9866 35.2587 48.9022 35.1596 48.7907 35.1024C48.6024 35.0047 48.441 34.8624 48.3206 34.6877C48.2002 34.5131 48.1246 34.3115 48.1004 34.1008C48.1004 33.6478 48.3751 33.4198 48.8605 33.0557C49.3685 32.6748 50.0005 32.2007 50.0005 31.2507C49.9768 30.8635 49.8525 30.4892 49.6398 30.1647C49.4272 29.8403 49.1335 29.5769 48.7879 29.4007Z" fill="#F7F9FB"/>
<path d="M48.9714 53.2V46C48.9714 44.9391 48.5475 43.9217 47.7928 43.1716C47.0382 42.4214 46.0148 42 44.9476 42H25.6333C24.5661 42 23.5427 42.4214 22.7881 43.1716C22.0335 43.9217 21.6095 44.9391 21.6095 46V53.2C21.1098 53.5726 20.7042 54.0557 20.4248 54.6111C20.1454 55.1666 20 55.779 20 56.4V65.2C20 65.4122 20.0848 65.6157 20.2357 65.7657C20.3866 65.9157 20.5913 66 20.8048 66H23.219C23.6459 66 24.0553 65.8314 24.3571 65.5314C24.659 65.2313 24.8286 64.8243 24.8286 64.4C24.8286 63.7635 25.0829 63.153 25.5357 62.7029C25.9885 62.2529 26.6025 62 27.2428 62H43.3381C43.9784 62 44.5925 62.2529 45.0452 62.7029C45.498 63.153 45.7523 63.7635 45.7523 64.4C45.7523 64.8243 45.9219 65.2313 46.2238 65.5314C46.5256 65.8314 46.935 66 47.3619 66H49.7762C49.9896 66 50.1943 65.9157 50.3452 65.7657C50.4961 65.6157 50.5809 65.4122 50.5809 65.2V56.4C50.5809 55.779 50.4355 55.1666 50.1561 54.6111C49.8767 54.0557 49.4711 53.5726 48.9714 53.2ZM23.219 46C23.219 45.3635 23.4734 44.753 23.9262 44.3029C24.3789 43.8529 24.993 43.6 25.6333 43.6H44.9476C45.5879 43.6 46.202 43.8529 46.6547 44.3029C47.1075 44.753 47.3619 45.3635 47.3619 46V52.48C47.0967 52.4288 46.8273 52.4021 46.5571 52.4H45.7523V50.8C45.7523 50.1635 45.498 49.553 45.0452 49.1029C44.5925 48.6529 43.9784 48.4 43.3381 48.4H36.9C36.3044 48.4035 35.7312 48.6258 35.2905 49.024C34.8497 48.6258 34.2765 48.4035 33.6809 48.4H27.2428C26.6025 48.4 25.9885 48.6529 25.5357 49.1029C25.0829 49.553 24.8286 50.1635 24.8286 50.8V52.4H24.0238C23.7536 52.4021 23.4843 52.4288 23.219 52.48V46ZM26.4381 52.4V50.8C26.4381 50.5878 26.5229 50.3843 26.6738 50.2343C26.8247 50.0843 27.0294 50 27.2428 50H33.6809C33.8944 50 34.0991 50.0843 34.25 50.2343C34.4009 50.3843 34.4857 50.5878 34.4857 50.8V52.4H26.4381ZM36.0952 50.8C36.0952 50.5878 36.18 50.3843 36.3309 50.2343C36.4818 50.0843 36.6865 50 36.9 50H43.3381C43.5515 50 43.7562 50.0843 43.9071 50.2343C44.058 50.3843 44.1428 50.5878 44.1428 50.8V52.4H36.0952V50.8ZM21.6095 56.4C21.6095 55.7635 21.8639 55.153 22.3166 54.7029C22.7694 54.2529 23.3835 54 24.0238 54H46.5571C47.1974 54 47.8115 54.2529 48.2643 54.7029C48.717 55.153 48.9714 55.7635 48.9714 56.4V57.2H21.6095V56.4ZM47.3619 64.4C47.3619 63.3391 46.9379 62.3217 46.1833 61.5716C45.4287 60.8214 44.4052 60.4 43.3381 60.4H27.2428C26.1757 60.4 25.1522 60.8214 24.3976 61.5716C23.643 62.3217 23.219 63.3391 23.219 64.4H21.6095V58.8H48.9714V64.4H47.3619Z" fill="white"/>
<path d="M64.2618 56.4H59.4333V53.2H60.238V54C60.238 54.2122 60.3228 54.4157 60.4737 54.5657C60.6247 54.7158 60.8294 54.8 61.0428 54.8C61.2562 54.8 61.4609 54.7158 61.6119 54.5657C61.7628 54.4157 61.8476 54.2122 61.8476 54V53.2C61.9632 53.201 62.0777 53.1773 62.1832 53.1303C62.2887 53.0834 62.3829 53.0144 62.4592 52.928C62.5345 52.8408 62.59 52.7385 62.6219 52.6281C62.6538 52.5177 62.6615 52.4017 62.6443 52.288L61.8395 46.688C61.8124 46.4972 61.7168 46.3225 61.5704 46.1961C61.4241 46.0697 61.2367 46.0001 61.0428 46H56.2142C56.019 45.9981 55.8296 46.0669 55.6816 46.1935C55.5335 46.32 55.4368 46.4958 55.4095 46.688L54.6047 52.288C54.5875 52.4017 54.5951 52.5177 54.6271 52.6281C54.659 52.7385 54.7145 52.8408 54.7898 52.928C54.867 53.0154 54.9624 53.085 55.0694 53.132C55.1765 53.179 55.2925 53.2022 55.4095 53.2H57.8238V56.4H52.9952C52.7818 56.4 52.5771 56.4843 52.4261 56.6344C52.2752 56.7844 52.1904 56.9879 52.1904 57.2C52.1904 57.4122 52.2752 57.6157 52.4261 57.7657C52.5771 57.9158 52.7818 58 52.9952 58V65.2C52.9952 65.4122 53.08 65.6157 53.2309 65.7657C53.3818 65.9158 53.5865 66 53.8 66C54.0134 66 54.2181 65.9158 54.369 65.7657C54.5199 65.6157 54.6047 65.4122 54.6047 65.2V64.4H62.6523V65.2C62.6523 65.4122 62.7371 65.6157 62.888 65.7657C63.039 65.9158 63.2436 66 63.4571 66C63.6705 66 63.8752 65.9158 64.0261 65.7657C64.1771 65.6157 64.2618 65.4122 64.2618 65.2V58C64.4753 58 64.68 57.9158 64.8309 57.7657C64.9818 57.6157 65.0666 57.4122 65.0666 57.2C65.0666 56.9879 64.9818 56.7844 64.8309 56.6344C64.68 56.4843 64.4753 56.4 64.2618 56.4ZM56.9144 47.6H60.3427L60.9221 51.6H56.3349L56.9144 47.6ZM62.6523 62.8H54.6047V58H62.6523V62.8Z" fill="white"/>
<path d="M57.0195 60.4C57.0195 60.6121 57.1043 60.8156 57.2552 60.9657C57.4062 61.1157 57.6109 61.2 57.8243 61.2H59.4338C59.6472 61.2 59.8519 61.1157 60.0029 60.9657C60.1538 60.8156 60.2386 60.6121 60.2386 60.4C60.2386 60.1878 60.1538 59.9843 60.0029 59.8343C59.8519 59.6843 59.6472 59.6 59.4338 59.6H57.8243C57.6109 59.6 57.4062 59.6843 57.2552 59.8343C57.1043 59.9843 57.0195 60.1878 57.0195 60.4Z" fill="white"/>
</svg>
