<svg width="86" height="86" viewBox="0 0 86 86" fill="none" xmlns="http://www.w3.org/2000/svg">
<circle cx="43" cy="43" r="43" fill="#169AD8"/>
<path d="M57.0981 37.47C56.6324 34.4974 55.164 31.8471 52.8359 29.8773C50.3287 27.7643 47.141 26.7615 43.8458 27.048C40.5865 27.3703 37.6137 28.9103 35.5005 31.4532C32.8859 34.6048 31.4174 37.47 31.0234 40.2277C30.6652 42.9138 31.3815 45.4208 33.1008 47.7129L26.9761 53.8729C26.2956 54.5534 25.9374 55.4846 26.009 56.4158C26.0448 57.3469 26.5105 58.2423 27.2268 58.8511L28.8386 60.2121C29.4474 60.7135 30.2354 61 31.0234 61C31.1666 61 31.3099 61 31.4532 60.9642C32.3844 60.8567 33.244 60.3195 33.7813 59.5674L38.7598 52.4762C40.3358 53.2641 41.9117 53.6581 43.4877 53.6581C44.4905 53.6581 45.4934 53.5148 46.4963 53.1925C49.1467 52.3329 51.7255 50.399 54.3402 47.2473C54.376 47.2115 54.4118 47.1757 54.4476 47.104C54.5909 47.104 54.77 47.1398 54.9132 47.1398C57.7069 47.1398 59.9992 44.8477 59.9992 42.0542C60.035 40.0486 58.8173 38.2937 57.0981 37.47ZM32.1337 58.4214C31.9188 58.7437 31.5606 58.9586 31.2025 58.9944C30.8085 59.0302 30.4503 58.9228 30.128 58.6721L28.5162 57.3111C28.2297 57.0604 28.0506 56.7023 28.0148 56.3083C27.9789 55.9144 28.1222 55.5562 28.4087 55.2697L34.426 49.2529C34.82 49.6469 35.2498 50.0408 35.6796 50.399C36.1452 50.7929 36.575 51.1152 37.0406 51.4376L32.1337 58.4214ZM36.969 48.8589C34.032 46.3877 32.7426 43.7733 33.0291 40.8007L45.6008 51.3301C42.7355 52.1539 39.906 51.3301 36.969 48.8589ZM47.6782 50.5064L33.4947 38.616C34.1036 36.7895 35.2856 34.8555 37.0406 32.7425C38.8315 30.6294 41.3028 29.3401 44.0249 29.0894C44.3473 29.0536 44.6338 29.0536 44.9561 29.0536C47.3559 29.0536 49.684 29.8773 51.5464 31.4532C53.2657 32.8857 54.4476 34.8197 54.9491 37.0044C52.1553 37.0044 49.8631 39.2965 49.8631 42.09C49.8631 43.9524 50.9017 45.5998 52.4061 46.4594C50.7943 48.2859 49.2542 49.6469 47.6782 50.5064ZM54.9491 45.1701C53.2657 45.1701 51.8688 43.7733 51.8688 42.09C51.8688 40.4068 53.2657 39.01 54.9491 39.01C56.6324 39.01 58.0293 40.4068 58.0293 42.09C58.0293 43.7733 56.6324 45.1701 54.9491 45.1701Z" fill="white"/>
</svg>
