<svg width="86" height="86" viewBox="0 0 86 86" fill="none" xmlns="http://www.w3.org/2000/svg">
<circle cx="43" cy="43" r="43" fill="#169AD8"/>
<path fill-rule="evenodd" clip-rule="evenodd" d="M24.212 46.4469H24.844C25.4986 46.4363 26.1445 46.5956 26.7209 46.9072C27.2817 47.171 27.6533 47.727 27.6898 48.3538V49.9154L33.6313 49.9172C33.989 49.9261 34.3206 49.7313 34.4925 49.4126L36.8851 45.1844C36.4666 44.3222 36.543 43.2952 37.0865 42.5073L33.5913 40.4517C31.9349 39.4743 31.6467 37.1885 32.6138 35.4798L36.0447 29.4209C36.5674 28.4984 38.1578 26.3436 39.7274 27.1953L62.7071 40.7245L62.7089 40.7262C62.9033 40.8696 63.0127 41.1051 62.9988 41.3495C62.9832 41.5938 62.846 41.8133 62.6359 41.932L58.547 44.4037C59.1252 45.1243 59.3908 46.0557 59.2831 46.9799C59.1738 47.906 58.6998 48.747 57.9688 49.3065C57.2396 49.8678 56.3158 50.0997 55.413 49.951C54.5119 49.8023 53.708 49.2852 53.1871 48.5186L52.0151 50.5866C51.8501 50.8805 51.482 50.9814 51.192 50.8132L42.6147 45.7634C42.1945 46.684 41.2934 47.279 40.295 47.2914L37.1002 52.872C36.7113 53.5661 35.9838 53.9893 35.2008 53.984L27.6898 53.9999V55.5668C27.6533 56.1936 27.2817 56.7514 26.7209 57.0134C26.1445 57.3268 25.4986 57.4844 24.844 57.4755H24.2119V58.3821C24.2119 58.7238 23.9411 59 23.606 59C23.2709 59 23 58.7238 23 58.3821V45.54C23 45.1983 23.2709 44.9203 23.606 44.9203C23.9411 44.9203 24.2119 45.1983 24.2119 45.54L24.212 46.4469ZM40.2954 32.6398L46.7525 36.5263C47.039 36.6998 47.4106 36.6024 47.5807 36.3085C47.7509 36.0146 47.6554 35.6374 47.3672 35.4639L40.9132 31.5757C40.6249 31.411 40.2621 31.5102 40.0936 31.8006C39.9269 32.0892 40.0172 32.4628 40.2968 32.6399L40.2954 32.6398ZM27.6901 51.155V52.7698L35.2011 52.7538C35.5553 52.7609 35.8852 52.5662 36.0536 52.2474L39.0018 47.0988C38.5035 46.9235 38.0469 46.6455 37.6614 46.279L35.5362 50.0308C35.149 50.7302 34.4181 51.1605 33.6298 51.1552L27.6901 51.155ZM41.5542 45.1388L38.1476 43.1327C36.4738 44.9688 40.8683 47.4458 41.5542 45.1388ZM51.2703 49.4377L52.4336 47.3821L42.0681 41.2788L39.8786 42.7289L51.2703 49.4377ZM38.7063 42.0404L41.7223 40.0414H41.7206C41.9202 39.9086 42.1789 39.9086 42.3786 40.0414L53.0464 46.3232C53.0881 46.2754 53.1349 46.2365 53.1888 46.2046L61.2887 41.3107L39.158 28.2828C38.908 28.2049 38.6354 28.2686 38.4444 28.451C37.8974 28.8865 37.4373 29.4248 37.09 30.0374L33.6626 36.0981C33.0306 37.2153 33.1331 38.7557 34.1974 39.3843C35.6975 40.2678 37.2151 41.1637 38.705 42.0402L38.7063 42.0404ZM53.9075 47.2457C54.1071 47.8814 54.5829 48.3895 55.1975 48.625C55.8121 48.8605 56.498 48.795 57.0588 48.4497C57.6213 48.1045 57.9964 47.5149 58.0798 46.8509C58.1631 46.1887 57.9426 45.523 57.4842 45.0449L53.9422 47.1856L53.9074 47.2475L53.9075 47.2457ZM24.8436 47.6848L24.2116 47.6831V56.2403C24.9078 56.2403 25.545 56.2793 26.1284 55.9429C26.342 55.8189 26.4757 55.6844 26.4757 55.5675V48.356C26.4757 48.2391 26.342 48.1046 26.1284 47.9806C25.7308 47.7735 25.2898 47.6708 24.8436 47.6832V47.6848Z" fill="white"/>
</svg>
