<svg width="86" height="86" viewBox="0 0 86 86" fill="none" xmlns="http://www.w3.org/2000/svg">
<circle cx="43" cy="43" r="43" fill="#169AD8"/>
<path d="M51.4655 29.0009L56.6551 34.2678L56.6381 34.285L57.1914 34.8465C57.8108 35.4752 58.2 36.3598 58.2 37.3333V53.6944C58.2 54.1564 58.1103 54.6136 57.9364 55.0398C57.7624 55.466 57.5078 55.8524 57.1876 56.1774C56.8674 56.5024 56.4879 56.7596 56.0711 56.9348C55.6543 57.11 55.208 57.2 54.7576 57.2C53.8484 57.2 52.9741 56.8336 52.3276 56.1774C51.6807 55.5209 51.3152 54.628 51.3152 53.6944V45.0833V44.2833H50.5152H47.9697H47.1697V45.0833V57.2H31.8V30.4444C31.8 29.7393 32.0761 29.0654 32.5639 28.5703C33.0513 28.0757 33.7098 27.8 34.3939 27.8H44.5758C45.2599 27.8 45.9184 28.0757 46.4058 28.5703L46.9628 28.0215L46.4058 28.5703C46.8936 29.0654 47.1697 29.7393 47.1697 30.4444V42.5V43.3H47.9697H49.6667C50.3508 43.3 51.0093 43.5757 51.4967 44.0703C51.9845 44.5654 52.2606 45.2393 52.2606 45.9444V53.6944C52.2606 54.3596 52.5209 54.9998 52.9878 55.4737C53.4551 55.948 54.0915 56.2167 54.7576 56.2167C55.4237 56.2167 56.06 55.948 56.5274 55.4737C56.9943 54.9998 57.2545 54.3596 57.2545 53.6944V41.2772V40.0673L56.1413 40.5411C55.697 40.7302 55.2435 40.8389 54.7576 40.8389C53.8484 40.8389 52.9741 40.4725 52.3276 39.8163C52.0073 39.4913 51.7527 39.1049 51.5788 38.6787C51.4048 38.2525 51.3152 37.7953 51.3152 37.3333C51.3152 35.8304 52.2402 34.5703 53.5371 34.0662L54.6709 33.6255L53.8171 32.7591L50.7898 29.6867L51.4655 29.0009ZM36.9879 52.8333V55.8847L38.485 53.2258L45.2729 41.1703L45.9443 39.9778H44.5758H41.9818V32.1667L40.4736 31.7945L33.6858 44.7112L33.0698 45.8833H34.3939H36.9879V52.8333ZM52.9878 39.1126C53.4551 39.5869 54.0915 39.8556 54.7576 39.8556C55.4237 39.8556 56.06 39.5869 56.5274 39.1126C56.9943 38.6387 57.2545 37.9985 57.2545 37.3333C57.2545 36.6682 56.9943 36.0279 56.5274 35.554C56.06 35.0798 55.4237 34.8111 54.7576 34.8111C54.0915 34.8111 53.4551 35.0798 52.9878 35.554C52.5209 36.0279 52.2606 36.6682 52.2606 37.3333C52.2606 37.9985 52.5209 38.6387 52.9878 39.1126Z" stroke="white" stroke-width="1.6"/>
</svg>
