<svg width="86" height="86" viewBox="0 0 86 86" fill="none" xmlns="http://www.w3.org/2000/svg">
<circle cx="43" cy="43" r="43" fill="#169AD8"/>
<path d="M39.7283 59L36.8315 53.3333H28V52H37.6793L41 58.4L39.7283 59Z" fill="white"/>
<path d="M39 49H28V50H39V49Z" fill="white"/>
<path d="M47.2717 59L46 58.4L49.3207 52H59V53.3333H50.1685L47.2717 59Z" fill="white"/>
<path d="M59 49H48V50H59V49Z" fill="white"/>
<path d="M44 33H43V58H44V33Z" fill="white"/>
<path d="M52 43H35V45H52V43Z" fill="white"/>
<path d="M59 36H57.4709L57.2623 35.7252C56.2892 34.3511 54.6211 33.5954 52.7444 33.5954C51.1457 33.5954 49.6861 34.2137 48.6435 35.2443L48.157 35.7252L47.6704 35.2443C46.6278 34.2137 45.1682 33.5954 43.5695 33.5954C41.9709 33.5954 40.5112 34.2137 39.4686 35.2443L38.9821 35.7252L38.4955 35.2443C37.4529 34.2137 35.9933 33.5954 34.3946 33.5954C32.5179 33.5954 30.8498 34.4198 29.8767 35.7252L29.6682 36H28L28.139 35.1756C28.9731 30.5038 35.5762 27 43.5 27C51.4238 27 58.0269 30.5038 58.861 35.2443L59 36ZM34.3251 32.2214C36.0628 32.2214 37.6614 32.771 38.9126 33.8015C40.1637 32.771 41.7623 32.2214 43.5 32.2214C45.2377 32.2214 46.8363 32.771 48.0874 33.8015C49.3386 32.771 50.9372 32.2214 52.6749 32.2214C54.065 32.2214 55.3161 32.5649 56.4283 33.1832C54.343 30.3664 49.1996 28.374 43.5 28.374C37.8004 28.374 32.657 30.3664 30.5717 33.1832C31.6143 32.5649 32.935 32.2214 34.3251 32.2214Z" fill="white"/>
</svg>
