<svg width="86" height="86" viewBox="0 0 86 86" fill="none" xmlns="http://www.w3.org/2000/svg">
<circle cx="43" cy="43" r="43" fill="#169AD8"/>
<path d="M39.9386 27C33.351 27 28 32.1479 28 38.4703C28 44.5032 32.8735 49.4668 39.0433 49.909V57.2575H35.1246C34.887 57.2575 34.6591 57.3474 34.4911 57.5076C34.3231 57.6677 34.2287 57.885 34.2287 58.1115C34.2287 58.338 34.3231 58.5552 34.4911 58.7154C34.6591 58.8756 34.887 58.9656 35.1246 58.9656H39.9649H47.7898C47.9541 59.0115 48.1287 59.0115 48.293 58.9656H57.8012C57.9655 59.0115 58.1401 59.0115 58.3044 58.9656H65.1042C65.3418 58.9656 65.5696 58.8756 65.7376 58.7154C65.9056 58.5552 66 58.338 66 58.1115C66 57.885 65.9056 57.6677 65.7376 57.5076C65.5696 57.3474 65.3418 57.2575 65.1042 57.2575H58.9452V55.4341H60.1721C60.2927 55.439 60.4131 55.4206 60.5261 55.38C60.639 55.3394 60.7421 55.2774 60.8293 55.1977C60.9165 55.1181 60.9858 55.0225 61.0332 54.9167C61.0806 54.8109 61.105 54.6969 61.105 54.5819C61.105 54.4668 61.0806 54.3529 61.0332 54.2471C60.9858 54.1412 60.9165 54.0456 60.8293 53.966C60.7421 53.8864 60.639 53.8244 60.5261 53.7838C60.4131 53.7432 60.2927 53.7248 60.1721 53.7297H58.2147C58.1565 53.7193 58.0974 53.7145 58.0382 53.7153C57.9898 53.7164 57.9415 53.7212 57.8939 53.7297H48.2023C48.1445 53.7194 48.0857 53.7146 48.0268 53.7153C47.9784 53.7164 47.9301 53.7212 47.8824 53.7297H46.242C46.1214 53.7248 46.001 53.7432 45.8881 53.7838C45.7751 53.8244 45.672 53.8864 45.5848 53.966C45.4977 54.0456 45.4283 54.1412 45.3809 54.2471C45.3335 54.3529 45.3091 54.4668 45.3091 54.5819C45.3091 54.6969 45.3335 54.8109 45.3809 54.9167C45.4283 55.0225 45.4977 55.1181 45.5848 55.1977C45.672 55.2774 45.7751 55.3394 45.8881 55.38C46.001 55.4206 46.1214 55.439 46.242 55.4341H47.1451V57.2575H40.8349V49.909C47.0047 49.4668 51.8782 44.5032 51.8782 38.4703C51.8782 32.1479 46.5262 27 39.9386 27ZM39.9386 28.7043C45.551 28.7043 50.0905 33.0619 50.0905 38.4703C50.0905 43.5876 46.0265 47.7649 40.8349 48.2V45.2451C40.8858 45.0844 40.8858 44.9129 40.8349 44.7522V39.2114C40.8364 39.0971 40.8139 38.9838 40.7686 38.878C40.7233 38.7722 40.6562 38.6762 40.5712 38.5957C40.4863 38.5151 40.3852 38.4516 40.274 38.409C40.1628 38.3664 40.0438 38.3455 39.924 38.3476C39.6871 38.3511 39.4614 38.444 39.2964 38.6059C39.1313 38.7679 39.0403 38.9856 39.0433 39.2114V42.8601C38.669 42.4961 38.2891 42.13 37.9851 41.8409C37.8288 41.6925 37.6926 41.5643 37.5833 41.4643C37.474 41.3643 37.4982 41.3522 37.2624 41.2012C37.115 41.104 36.9403 41.0512 36.7611 41.0497C36.5678 41.0487 36.3794 41.1073 36.224 41.2169C36.0686 41.3265 35.9546 41.481 35.8991 41.6575C35.8435 41.834 35.8494 42.0229 35.9158 42.1959C35.9823 42.3689 36.1057 42.5168 36.2676 42.6174C36.0866 42.5015 36.2506 42.6084 36.3446 42.6946C36.4388 42.7806 36.5695 42.902 36.7211 43.0461C37.0242 43.3343 37.4151 43.7114 37.7968 44.0828C38.4308 44.6996 38.8527 45.1152 39.0432 45.3028V48.2001C33.8517 47.765 29.7877 43.5877 29.7877 38.4704C29.7877 33.062 34.3262 28.7043 39.9386 28.7043ZM48.0784 50.1796C47.8409 50.1796 47.613 50.2696 47.445 50.4298C47.277 50.5899 47.1826 50.8072 47.1826 51.0337C47.1826 51.2602 47.277 51.4774 47.445 51.6376C47.613 51.7977 47.8409 51.8877 48.0784 51.8877H57.9826C58.2202 51.8877 58.448 51.7977 58.616 51.6376C58.784 51.4774 58.8784 51.2602 58.8784 51.0337C58.8784 50.8072 58.784 50.5899 58.616 50.4298C58.448 50.2696 58.2202 50.1796 57.9826 50.1796H48.0784ZM48.9328 55.4341H57.1575V57.2575H48.9328V55.4341Z" fill="white"/>
</svg>
