<svg width="10" height="8" viewBox="0 0 10 8" fill="none" xmlns="http://www.w3.org/2000/svg">
<path d="M7.95893 0.36136L3.73274 4.71739L2.04107 2.97498C1.57481 2.49316 0.81804 2.49316 0.350589 2.97498C-0.116863 3.45679 -0.116863 4.23681 0.350589 4.71739L2.8875 7.33101C2.99843 7.44554 3.13018 7.5364 3.27522 7.5984C3.42025 7.6604 3.57573 7.69231 3.73274 7.69231C3.88975 7.69231 4.04522 7.6604 4.19026 7.5984C4.3353 7.5364 4.46705 7.44554 4.57798 7.33101L9.64941 2.10377C10.1169 1.62196 10.1169 0.843172 9.64941 0.36136C9.18196 -0.120453 8.42638 -0.120453 7.95893 0.36136Z" fill="#66CDB4"/>
</svg>
